# xmcd
#
# Track frame offsets: 
#        150
#        14546
#        33526
#        46390
#        62627
#        80026
#        91659
#        112276
#        132894
#        149025
#        163545
#        175658
#
# Disc length: 2443 seconds
#
# Revision: 3
# Processed by: cddbd v1.5.2PL0 Copyright (c) Steve Scherf et al.
# Submitted via: ExactAudioCopy v0.99pb3
#
DISCID=a609890c
DTITLE=Handsome Family - Milk and Scissors
DYEAR=1996
DGENRE=Alternative
TTITLE0=Lake Geneva
TTITLE1=Winnebago Skeletons
TTITLE2=Drunk by Noon
TTITLE3=The House Carpenter
TTITLE4=The Dutch Boy
TTITLE5=The King Who Wouldn't Smile
TTITLE6=Emily Shore 1819-1839
TTITLE7=3-Legged Dog
TTITLE8=#1 Country Song
TTITLE9=Amelia Earhart vs. the Dancing Bear
TTITLE10=Tin Foil
TTITLE11=Puddin' Fingers
EXTD=alt country/rock
EXTT0=
EXTT1=
EXTT2=
EXTT3=
EXTT4=
EXTT5=
EXTT6=
EXTT7=
EXTT8=
EXTT9=
EXTT10=
EXTT11=
PLAYORDER=
